<svg width="24" height="24" viewBox="0 0 24 24" fill="none" xmlns="http://www.w3.org/2000/svg">
<path d="M11.8922 1.08765C13.3781 1.08765 14.8031 1.67792 15.8538 2.72861C16.9045 3.7793 17.4948 5.20434 17.4948 6.69024C17.4948 8.17614 16.9045 9.60118 15.8538 10.6519C14.8031 11.7026 13.3781 12.2928 11.8922 12.2928C10.4063 12.2928 8.98126 11.7026 7.93057 10.6519C6.87988 9.60118 6.28961 8.17614 6.28961 6.69024C6.28961 5.20434 6.87988 3.7793 7.93057 2.72861C8.98126 1.67792 10.4063 1.08765 11.8922 1.08765ZM11.8922 15.0941C18.0831 15.0941 23.0974 17.6013 23.0974 20.6967V23.498H0.687012V20.6967C0.687012 17.6013 5.70133 15.0941 11.8922 15.0941Z" fill="white" stroke="white" stroke-width="0.672311"/>
</svg>
