<svg width="26" height="28" viewBox="0 0 26 28" fill="none" xmlns="http://www.w3.org/2000/svg">
<path d="M23.3973 2.58462H20.2459V1.53413C20.2459 1.25552 20.1352 0.988327 19.9382 0.791323C19.7412 0.594318 19.474 0.483643 19.1954 0.483643C18.9168 0.483643 18.6496 0.594318 18.4526 0.791323C18.2556 0.988327 18.1449 1.25552 18.1449 1.53413V2.58462H7.64003V1.53413C7.64003 1.25552 7.52935 0.988327 7.33235 0.791323C7.13534 0.594318 6.86815 0.483643 6.58954 0.483643C6.31093 0.483643 6.04374 0.594318 5.84673 0.791323C5.64973 0.988327 5.53905 1.25552 5.53905 1.53413V2.58462H2.38759C1.83038 2.58462 1.29599 2.80597 0.901982 3.19998C0.507973 3.59399 0.286621 4.12838 0.286621 4.68559V25.6953C0.286621 26.2525 0.507973 26.7869 0.901982 27.1809C1.29599 27.5749 1.83038 27.7963 2.38759 27.7963H23.3973C23.9545 27.7963 24.4889 27.5749 24.8829 27.1809C25.2769 26.7869 25.4983 26.2525 25.4983 25.6953V4.68559C25.4983 4.12838 25.2769 3.59399 24.8829 3.19998C24.4889 2.80597 23.9545 2.58462 23.3973 2.58462ZM18.3629 15.9337L12.0599 22.2366C11.9624 22.3343 11.8465 22.4117 11.719 22.4646C11.5915 22.5175 11.4548 22.5447 11.3167 22.5447C11.1787 22.5447 11.042 22.5175 10.9145 22.4646C10.7869 22.4117 10.6711 22.3343 10.5735 22.2366L7.42205 19.0851C7.22494 18.888 7.1142 18.6207 7.1142 18.3419C7.1142 18.0632 7.22494 17.7958 7.42205 17.5987C7.61916 17.4016 7.88651 17.2908 8.16527 17.2908C8.44403 17.2908 8.71138 17.4016 8.90849 17.5987L11.3167 20.0082L16.8764 14.4472C16.974 14.3496 17.0899 14.2722 17.2174 14.2194C17.3449 14.1666 17.4816 14.1394 17.6196 14.1394C17.7577 14.1394 17.8944 14.1666 18.0219 14.2194C18.1494 14.2722 18.2653 14.3496 18.3629 14.4472C18.4605 14.5448 18.5379 14.6607 18.5907 14.7882C18.6435 14.9157 18.6707 15.0524 18.6707 15.1905C18.6707 15.3285 18.6435 15.4652 18.5907 15.5927C18.5379 15.7202 18.4605 15.8361 18.3629 15.9337ZM2.38759 8.88754V4.68559H5.53905V5.73608C5.53905 6.01468 5.64973 6.28188 5.84673 6.47888C6.04374 6.67589 6.31093 6.78656 6.58954 6.78656C6.86815 6.78656 7.13534 6.67589 7.33235 6.47888C7.52935 6.28188 7.64003 6.01468 7.64003 5.73608V4.68559H18.1449V5.73608C18.1449 6.01468 18.2556 6.28188 18.4526 6.47888C18.6496 6.67589 18.9168 6.78656 19.1954 6.78656C19.474 6.78656 19.7412 6.67589 19.9382 6.47888C20.1352 6.28188 20.2459 6.01468 20.2459 5.73608V4.68559H23.3973V8.88754H2.38759Z" fill="white"/>
</svg>
