<svg width="26" height="28" viewBox="0 0 26 28" fill="none" xmlns="http://www.w3.org/2000/svg">
<path d="M14.7563 1.37429C13.5826 0.384027 11.8659 0.384027 10.6922 1.37429L1.23775 9.35034C0.527972 9.94913 0.118408 10.8305 0.118408 11.7591V24.7923C0.118408 26.146 1.21582 27.2435 2.56954 27.2435H6.77149C8.12522 27.2435 9.22262 26.146 9.22262 24.7923V19.1861C9.22262 18.2346 9.98149 17.4605 10.9271 17.4358H14.5214C15.467 17.4605 16.2259 18.2346 16.2259 19.1861V24.7923C16.2259 26.146 17.3233 27.2435 18.677 27.2435H22.8789C24.2327 27.2435 25.3301 26.146 25.3301 24.7923V11.7591C25.3301 10.8305 24.9205 9.94913 24.2107 9.35034L14.7563 1.37429Z" fill="white"/>
</svg>
