<svg width="50" height="50" viewBox="0 0 50 50" fill="none" xmlns="http://www.w3.org/2000/svg">
<g clip-path="url(#clip0_125_336)">
<path d="M9.39464e-06 7.8125C9.39464e-06 6.5693 0.49387 5.37701 1.37295 4.49794C2.25202 3.61886 3.44431 3.125 4.68751 3.125H39.0625C40.3057 3.125 41.498 3.61886 42.3771 4.49794C43.2561 5.37701 43.75 6.5693 43.75 7.8125V40.7125C43.75 41.65 43.5938 42.7562 43.0063 43.75H45.3125C45.7269 43.75 46.1243 43.5854 46.4174 43.2924C46.7104 42.9993 46.875 42.6019 46.875 42.1875V14.0625C46.875 13.6481 47.0396 13.2507 47.3327 12.9576C47.6257 12.6646 48.0231 12.5 48.4375 12.5C48.8519 12.5 49.2493 12.6646 49.5424 12.9576C49.8354 13.2507 50 13.6481 50 14.0625V42.1875C50 43.4307 49.5061 44.623 48.6271 45.5021C47.748 46.3811 46.5557 46.875 45.3125 46.875H4.67813C4.063 46.875 3.45391 46.7537 2.88573 46.518C2.31754 46.2823 1.80141 45.9369 1.36688 45.5015C0.932355 45.0661 0.587962 44.5493 0.353416 43.9806C0.11887 43.412 -0.00122333 42.8026 9.39464e-06 42.1875V7.8125ZM37.5 43.75C38.6563 43.75 39.5438 43.0906 40.1656 42.3719C40.4531 42.0406 40.625 41.5 40.625 40.7125V7.8125C40.625 7.3981 40.4604 7.00067 40.1674 6.70765C39.8743 6.41462 39.4769 6.25 39.0625 6.25H4.68751C4.27311 6.25 3.87568 6.41462 3.58265 6.70765C3.28963 7.00067 3.12501 7.3981 3.12501 7.8125V42.1875C3.12501 43.0563 3.82188 43.75 4.67813 43.75H37.5Z" fill="white"/>
<path d="M6.25 9.375H37.5V15.625H6.25V9.375ZM6.25 18.75H18.75V28.125H6.25V18.75ZM6.25 31.25H18.75V34.375H6.25V31.25ZM6.25 37.5H18.75V40.625H6.25V37.5ZM21.875 18.75H28.125V21.875H21.875V18.75ZM31.25 18.75H37.5V21.875H31.25V18.75ZM21.875 25H28.125V28.125H21.875V25ZM31.25 25H37.5V28.125H31.25V25ZM21.875 31.25H28.125V34.375H21.875V31.25ZM31.25 31.25H37.5V34.375H31.25V31.25ZM21.875 37.5H28.125V40.625H21.875V37.5ZM31.25 37.5H37.5V40.625H31.25V37.5Z" fill="white"/>
</g>
<defs>
<clipPath id="clip0_125_336">
<rect width="50" height="50" fill="white"/>
</clipPath>
</defs>
</svg>
