<svg width="50" height="50" viewBox="0 0 50 50" fill="none" xmlns="http://www.w3.org/2000/svg">
<path d="M8.86105 10.7946C10.9257 11.9254 13.4962 10.5007 13.5083 8.21875H16.6331C16.6452 10.5007 19.2158 11.9255 21.2805 10.7946L22.8409 13.3892C23.7112 12.9232 24.7499 12.6157 25.8078 12.4339C25.7437 12.254 25.6605 12.0774 25.5576 11.9065L23.9784 9.28055C23.1249 7.86151 21.2407 7.37005 19.7579 8.17459C19.7423 6.53955 18.3568 5.21875 16.65 5.21875H13.4914C11.7846 5.21875 10.3992 6.53951 10.3835 8.17447C8.90078 7.37001 7.01657 7.86147 6.16318 9.28047L4.58391 11.9064C3.73049 13.3255 4.22928 15.1378 5.69643 15.9683C4.22928 16.7987 3.73053 18.611 4.58393 20.03L6.16322 22.656C7.01662 24.075 8.90078 24.5664 10.3835 23.762C10.3954 24.9988 11.191 26.0558 12.3167 26.4972C12.3107 25.3558 12.6104 24.1976 13.2479 23.1378L13.3891 22.903C12.8593 21.1186 10.6668 20.153 8.86107 21.142L7.29872 18.5441C9.35124 17.393 9.3512 14.5435 7.29868 13.3924L8.86105 10.7946Z" fill="white"/>
<path d="M15.0713 18.9688C16.7972 18.9688 18.1963 17.6256 18.1963 15.9688C18.1963 14.3119 16.7972 12.9688 15.0713 12.9688C13.3454 12.9688 11.9463 14.3119 11.9463 15.9688C11.9463 17.6256 13.3454 18.9688 15.0713 18.9688Z" fill="white"/>
<path fill-rule="evenodd" clip-rule="evenodd" d="M24.251 30.2214C24.251 26.836 27.1099 24.0914 30.6364 24.0914C34.1631 24.0914 37.0218 26.836 37.0218 30.2214C37.0218 33.607 34.1631 36.3514 30.6364 36.3514C27.1099 36.3514 24.251 33.607 24.251 30.2214ZM30.6364 27.0914C28.8358 27.0914 27.376 28.4928 27.376 30.2214C27.376 31.95 28.8358 33.3514 30.6364 33.3514C32.4372 33.3514 33.8968 31.95 33.8968 30.2214C33.8968 28.4928 32.4372 27.0914 30.6364 27.0914Z" fill="white"/>
<path fill-rule="evenodd" clip-rule="evenodd" d="M15.9546 35.8052C14.8997 34.0512 15.5267 31.809 17.3529 30.7968C17.816 30.54 17.8149 29.8992 17.3537 29.6436C15.5274 28.6314 14.9017 26.3896 15.9561 24.6364L18.2608 20.8042C19.3151 19.051 21.6503 18.4507 23.4761 19.4627C23.938 19.7187 24.5151 19.3986 24.5151 18.8871C24.5151 16.8631 26.2242 15.2223 28.3326 15.2223H32.9424C35.0515 15.2223 36.7605 16.864 36.7605 18.8879C36.7605 19.4004 37.3382 19.7197 37.7992 19.4642C39.6251 18.4522 41.9597 19.0528 43.0138 20.8056L45.3194 24.6392C46.3734 26.3918 45.748 28.6328 43.9224 29.6446C43.4619 29.8998 43.4609 30.5394 43.9232 30.7956C45.7486 31.8074 46.3755 34.049 45.3209 35.8024L43.0161 39.6346C41.9617 41.3878 39.6265 41.9884 37.8003 40.9762C37.3384 40.7202 36.7605 41.0402 36.7605 41.5528C36.7605 43.5772 35.0511 45.2188 32.9419 45.2188H28.333C26.2244 45.2188 24.5151 43.5778 24.5151 41.5536C24.5151 41.0422 23.9378 40.7212 23.4751 40.9776C21.649 41.9898 19.3131 41.3896 18.2585 39.636L15.9546 35.8052ZM18.9154 33.3948C18.583 33.579 18.4695 33.987 18.6609 34.3052L20.9649 38.136C21.1561 38.4542 21.5805 38.5636 21.9126 38.3796C24.4572 36.9692 27.6401 38.7312 27.6401 41.5536C27.6401 41.921 27.9503 42.2188 28.333 42.2188H32.9419C33.3249 42.2188 33.6355 41.9206 33.6355 41.5528C33.6355 38.7314 36.8172 36.9672 39.3628 38.3782C39.6944 38.562 40.1184 38.4528 40.3099 38.1346L42.6147 34.3024C42.8057 33.9846 42.6924 33.5776 42.3607 33.3936C39.8169 31.9838 39.8142 28.4574 42.3599 27.0466C42.6907 26.8632 42.8042 26.457 42.6132 26.1392L40.3076 22.3056C40.1163 21.9876 39.6928 21.8788 39.3617 22.0624C36.8161 23.4732 33.6355 21.7084 33.6355 18.8879C33.6355 18.5202 33.3249 18.2223 32.9424 18.2223L28.3326 18.2223C27.9501 18.2223 27.6401 18.5199 27.6401 18.8871C27.6401 21.7086 24.4582 23.4712 21.9136 22.0608C21.5822 21.877 21.1584 21.9862 20.9672 22.3042L18.6624 26.1364C18.471 26.4546 18.5846 26.8616 18.9162 27.0454C21.4626 28.4568 21.4601 31.9844 18.9154 33.3948Z" fill="white"/>
</svg>
